<svg width="25" height="24" viewBox="0 0 25 24" fill="none" xmlns="http://www.w3.org/2000/svg">
<g id="ic:baseline-apple">
<path id="Vector" d="M17.5499 20.28C16.5699 21.23 15.4999 21.08 14.4699 20.63C13.3799 20.17 12.3799 20.15 11.2299 20.63C9.78992 21.25 9.02992 21.07 8.16992 20.28C3.28992 15.25 4.00992 7.59 9.54992 7.31C10.8999 7.38 11.8399 8.05 12.6299 8.11C13.8099 7.87 14.9399 7.18 16.1999 7.27C17.7099 7.39 18.8499 7.99 19.5999 9.07C16.4799 10.94 17.2199 15.05 20.0799 16.2C19.5099 17.7 18.7699 19.19 17.5399 20.29L17.5499 20.28ZM12.5299 7.25C12.3799 5.02 14.1899 3.18 16.2699 3C16.5599 5.58 13.9299 7.5 12.5299 7.25Z" fill="white"/>
</g>
</svg>
